{
    "asset" : {
        "generator" : "Khronos glTF Blender I/O v1.7.33",
        "version" : "2.0"
    },
    "scene" : 0,
    "scenes" : [
        {
            "name" : "Scene",
            "nodes" : [
                1
            ]
        }
    ],
    "nodes" : [
        {
            "mesh" : 0,
            "name" : "ant_worker_side_1.png_14_0",
            "translation" : [
                14,
                0,
                -7
            ]
        },
        {
            "children" : [
                0
            ],
            "name" : "ant_worker_side_1.png",
            "scale" : [
                0.10000000149011612,
                0.10000000149011612,
                0.10000000149011612
            ]
        }
    ],
    "materials" : [
        {
            "doubleSided" : true,
            "name" : "AntSideMaterial",
            "pbrMetallicRoughness" : {}
        },
        {
            "doubleSided" : true,
            "name" : "pixel_art_520002FF.001",
            "pbrMetallicRoughness" : {}
        },
        {
            "doubleSided" : true,
            "name" : "pixel_art_776C67FF.001",
            "pbrMetallicRoughness" : {}
        }
    ],
    "meshes" : [
        {
            "name" : "ant_worker_side_1.png_14_0_mesh",
            "primitives" : [
                {
                    "attributes" : {
                        "POSITION" : 0,
                        "NORMAL" : 1
                    },
                    "indices" : 2,
                    "material" : 0
                },
                {
                    "attributes" : {
                        "POSITION" : 3,
                        "NORMAL" : 4
                    },
                    "indices" : 5,
                    "material" : 1
                },
                {
                    "attributes" : {
                        "POSITION" : 6,
                        "NORMAL" : 7
                    },
                    "indices" : 8,
                    "material" : 2
                }
            ]
        }
    ],
    "accessors" : [
        {
            "bufferView" : 0,
            "componentType" : 5126,
            "count" : 1296,
            "max" : [
                1,
                1,
                7
            ],
            "min" : [
                -9,
                0,
                -9
            ],
            "type" : "VEC3"
        },
        {
            "bufferView" : 1,
            "componentType" : 5126,
            "count" : 1296,
            "type" : "VEC3"
        },
        {
            "bufferView" : 2,
            "componentType" : 5123,
            "count" : 1944,
            "type" : "SCALAR"
        },
        {
            "bufferView" : 3,
            "componentType" : 5126,
            "count" : 144,
            "max" : [
                -3,
                1,
                2
            ],
            "min" : [
                -9,
                0,
                -3
            ],
            "type" : "VEC3"
        },
        {
            "bufferView" : 4,
            "componentType" : 5126,
            "count" : 144,
            "type" : "VEC3"
        },
        {
            "bufferView" : 5,
            "componentType" : 5123,
            "count" : 216,
            "type" : "SCALAR"
        },
        {
            "bufferView" : 6,
            "componentType" : 5126,
            "count" : 24,
            "max" : [
                9.5367431640625e-07,
                1,
                -5
            ],
            "min" : [
                -0.9999990463256836,
                0,
                -6
            ],
            "type" : "VEC3"
        },
        {
            "bufferView" : 7,
            "componentType" : 5126,
            "count" : 24,
            "type" : "VEC3"
        },
        {
            "bufferView" : 8,
            "componentType" : 5123,
            "count" : 36,
            "type" : "SCALAR"
        }
    ],
    "bufferViews" : [
        {
            "buffer" : 0,
            "byteLength" : 15552,
            "byteOffset" : 0
        },
        {
            "buffer" : 0,
            "byteLength" : 15552,
            "byteOffset" : 15552
        },
        {
            "buffer" : 0,
            "byteLength" : 3888,
            "byteOffset" : 31104
        },
        {
            "buffer" : 0,
            "byteLength" : 1728,
            "byteOffset" : 34992
        },
        {
            "buffer" : 0,
            "byteLength" : 1728,
            "byteOffset" : 36720
        },
        {
            "buffer" : 0,
            "byteLength" : 432,
            "byteOffset" : 38448
        },
        {
            "buffer" : 0,
            "byteLength" : 288,
            "byteOffset" : 38880
        },
        {
            "buffer" : 0,
            "byteLength" : 288,
            "byteOffset" : 39168
        },
        {
            "buffer" : 0,
            "byteLength" : 72,
            "byteOffset" : 39456
        }
    ],
    "buffers" : [
        {
            "byteLength" : 39528,
            "uri" : "data:application/octet-stream;base64,"
        }
    ]
}
