{
    "asset" : {
        "generator" : "Khronos glTF Blender I/O v1.7.33",
        "version" : "2.0"
    },
    "scene" : 0,
    "scenes" : [
        {
            "name" : "Scene",
            "nodes" : [
                0
            ]
        }
    ],
    "nodes" : [
        {
            "mesh" : 0,
            "name" : "Cylinder",
            "scale" : [
                0.3201160430908203,
                0.3201160430908203,
                0.3201160430908203
            ]
        }
    ],
    "meshes" : [
        {
            "name" : "Cylinder",
            "primitives" : [
                {
                    "attributes" : {
                        "POSITION" : 0,
                        "NORMAL" : 1,
                        "TEXCOORD_0" : 2
                    },
                    "indices" : 3
                }
            ]
        }
    ],
    "accessors" : [
        {
            "bufferView" : 0,
            "componentType" : 5126,
            "count" : 5584,
            "max" : [
                5.749685287475586,
                13.328580856323242,
                6.493654251098633
            ],
            "min" : [
                -8.985857963562012,
                -1.3639061450958252,
                -6.688758850097656
            ],
            "type" : "VEC3"
        },
        {
            "bufferView" : 1,
            "componentType" : 5126,
            "count" : 5584,
            "type" : "VEC3"
        },
        {
            "bufferView" : 2,
            "componentType" : 5126,
            "count" : 5584,
            "type" : "VEC2"
        },
        {
            "bufferView" : 3,
            "componentType" : 5123,
            "count" : 13344,
            "type" : "SCALAR"
        }
    ],
    "bufferViews" : [
        {
            "buffer" : 0,
            "byteLength" : 67008,
            "byteOffset" : 0
        },
        {
            "buffer" : 0,
            "byteLength" : 67008,
            "byteOffset" : 67008
        },
        {
            "buffer" : 0,
            "byteLength" : 44672,
            "byteOffset" : 134016
        },
        {
            "buffer" : 0,
            "byteLength" : 26688,
            "byteOffset" : 178688
        }
    ],
    "buffers" : [
        {
            "byteLength" : 205376,
            "uri" : "data:application/octet-stream;base64,"
        }
    ]
}
