{
    "asset" : {
        "generator" : "Khronos glTF Blender I/O v1.7.33",
        "version" : "2.0"
    },
    "scene" : 0,
    "scenes" : [
        {
            "name" : "Scene",
            "nodes" : [
                2
            ]
        }
    ],
    "nodes" : [
        {
            "mesh" : 0,
            "name" : "Cone",
            "rotation" : [
                -0.08335604518651962,
                0,
                0,
                0.996519923210144
            ],
            "scale" : [
                0.679850161075592,
                1.1315464973449707,
                0.6801456212997437
            ],
            "translation" : [
                -0.0063762119971215725,
                1.1403204202651978,
                -0.20170144736766815
            ]
        },
        {
            "mesh" : 1,
            "name" : "Cylinder",
            "rotation" : [
                0.9549269080162048,
                0.26901760697364807,
                -0.035901978611946106,
                0.12022969126701355
            ],
            "scale" : [
                0.2391095906496048,
                0.239109605550766,
                0.239109605550766
            ],
            "translation" : [
                0.5451915860176086,
                -0.9020821452140808,
                0.49366897344589233
            ]
        },
        {
            "children" : [
                0,
                1
            ],
            "mesh" : 2,
            "name" : "Sphere",
            "rotation" : [
                -0.6372068524360657,
                0,
                0,
                0.7706928253173828
            ],
            "scale" : [
                1.4709123373031616,
                1.4709123373031616,
                1.4709123373031616
            ],
            "translation" : [
                0.009378847666084766,
                -0.023826587945222855,
                0.8721405267715454
            ]
        }
    ],
    "meshes" : [
        {
            "name" : "Cone",
            "primitives" : [
                {
                    "attributes" : {
                        "POSITION" : 0,
                        "NORMAL" : 1,
                        "TEXCOORD_0" : 2
                    },
                    "indices" : 3
                }
            ]
        },
        {
            "name" : "Cylinder",
            "primitives" : [
                {
                    "attributes" : {
                        "POSITION" : 4,
                        "NORMAL" : 5,
                        "TEXCOORD_0" : 6
                    },
                    "indices" : 7
                }
            ]
        },
        {
            "name" : "Sphere",
            "primitives" : [
                {
                    "attributes" : {
                        "POSITION" : 8,
                        "NORMAL" : 9,
                        "TEXCOORD_0" : 10
                    },
                    "indices" : 11
                }
            ]
        }
    ],
    "accessors" : [
        {
            "bufferView" : 0,
            "componentType" : 5126,
            "count" : 17,
            "max" : [
                1,
                1,
                1
            ],
            "min" : [
                -1,
                -1,
                -1
            ],
            "type" : "VEC3"
        },
        {
            "bufferView" : 1,
            "componentType" : 5126,
            "count" : 17,
            "type" : "VEC3"
        },
        {
            "bufferView" : 2,
            "componentType" : 5126,
            "count" : 17,
            "type" : "VEC2"
        },
        {
            "bufferView" : 3,
            "componentType" : 5123,
            "count" : 42,
            "type" : "SCALAR"
        },
        {
            "bufferView" : 4,
            "componentType" : 5126,
            "count" : 80,
            "max" : [
                2.4199941158294678,
                4.708670139312744,
                -0.4100680947303772
            ],
            "min" : [
                -8.322242736816406,
                -4.690284252166748,
                -3.588489055633545
            ],
            "type" : "VEC3"
        },
        {
            "bufferView" : 5,
            "componentType" : 5126,
            "count" : 80,
            "type" : "VEC3"
        },
        {
            "bufferView" : 6,
            "componentType" : 5126,
            "count" : 80,
            "type" : "VEC2"
        },
        {
            "bufferView" : 7,
            "componentType" : 5123,
            "count" : 264,
            "type" : "SCALAR"
        },
        {
            "bufferView" : 8,
            "componentType" : 5126,
            "count" : 33,
            "max" : [
                1.0000001192092896,
                0.9999997615814209,
                1.000000238418579
            ],
            "min" : [
                -1.0000001192092896,
                -1,
                -1
            ],
            "type" : "VEC3"
        },
        {
            "bufferView" : 9,
            "componentType" : 5126,
            "count" : 33,
            "type" : "VEC3"
        },
        {
            "bufferView" : 10,
            "componentType" : 5126,
            "count" : 33,
            "type" : "VEC2"
        },
        {
            "bufferView" : 11,
            "componentType" : 5123,
            "count" : 120,
            "type" : "SCALAR"
        }
    ],
    "bufferViews" : [
        {
            "buffer" : 0,
            "byteLength" : 204,
            "byteOffset" : 0
        },
        {
            "buffer" : 0,
            "byteLength" : 204,
            "byteOffset" : 204
        },
        {
            "buffer" : 0,
            "byteLength" : 136,
            "byteOffset" : 408
        },
        {
            "buffer" : 0,
            "byteLength" : 84,
            "byteOffset" : 544
        },
        {
            "buffer" : 0,
            "byteLength" : 960,
            "byteOffset" : 628
        },
        {
            "buffer" : 0,
            "byteLength" : 960,
            "byteOffset" : 1588
        },
        {
            "buffer" : 0,
            "byteLength" : 640,
            "byteOffset" : 2548
        },
        {
            "buffer" : 0,
            "byteLength" : 528,
            "byteOffset" : 3188
        },
        {
            "buffer" : 0,
            "byteLength" : 396,
            "byteOffset" : 3716
        },
        {
            "buffer" : 0,
            "byteLength" : 396,
            "byteOffset" : 4112
        },
        {
            "buffer" : 0,
            "byteLength" : 264,
            "byteOffset" : 4508
        },
        {
            "buffer" : 0,
            "byteLength" : 240,
            "byteOffset" : 4772
        }
    ],
    "buffers" : [
        {
            "byteLength" : 5012,
            "uri" : "data:application/octet-stream;base64,"
        }
    ]
}
