{
    "asset" : {
        "generator" : "Khronos glTF Blender I/O v1.7.33",
        "version" : "2.0"
    },
    "scene" : 0,
    "scenes" : [
        {
            "name" : "Scene",
            "nodes" : [
                0
            ]
        }
    ],
    "nodes" : [
        {
            "mesh" : 0,
            "name" : "Cylinder",
            "scale" : [
                0.7700310945510864,
                0.04014652967453003,
                0.7700310945510864
            ]
        }
    ],
    "meshes" : [
        {
            "name" : "Cylinder",
            "primitives" : [
                {
                    "attributes" : {
                        "POSITION" : 0,
                        "NORMAL" : 1,
                        "TEXCOORD_0" : 2
                    },
                    "indices" : 3
                }
            ]
        }
    ],
    "accessors" : [
        {
            "bufferView" : 0,
            "componentType" : 5126,
            "count" : 319,
            "max" : [
                1.7888325452804565,
                122.3182144165039,
                1.7888339757919312
            ],
            "min" : [
                -1.788834571838379,
                -31.06629753112793,
                -1.7888339757919312
            ],
            "type" : "VEC3"
        },
        {
            "bufferView" : 1,
            "componentType" : 5126,
            "count" : 319,
            "type" : "VEC3"
        },
        {
            "bufferView" : 2,
            "componentType" : 5126,
            "count" : 319,
            "type" : "VEC2"
        },
        {
            "bufferView" : 3,
            "componentType" : 5123,
            "count" : 1356,
            "type" : "SCALAR"
        }
    ],
    "bufferViews" : [
        {
            "buffer" : 0,
            "byteLength" : 3828,
            "byteOffset" : 0
        },
        {
            "buffer" : 0,
            "byteLength" : 3828,
            "byteOffset" : 3828
        },
        {
            "buffer" : 0,
            "byteLength" : 2552,
            "byteOffset" : 7656
        },
        {
            "buffer" : 0,
            "byteLength" : 2712,
            "byteOffset" : 10208
        }
    ],
    "buffers" : [
        {
            "byteLength" : 12920,
            "uri" : "data:application/octet-stream;base64,"
        }
    ]
}
