{
    "asset" : {
        "generator" : "Khronos glTF Blender I/O v1.7.33",
        "version" : "2.0"
    },
    "scene" : 0,
    "scenes" : [
        {
            "name" : "Scene",
            "nodes" : [
                0
            ]
        }
    ],
    "nodes" : [
        {
            "mesh" : 0,
            "name" : "Sphere"
        }
    ],
    "meshes" : [
        {
            "name" : "Sphere",
            "primitives" : [
                {
                    "attributes" : {
                        "POSITION" : 0,
                        "NORMAL" : 1,
                        "TEXCOORD_0" : 2
                    },
                    "indices" : 3
                }
            ]
        }
    ],
    "accessors" : [
        {
            "bufferView" : 0,
            "componentType" : 5126,
            "count" : 391,
            "max" : [
                1.6730048656463623,
                2.879462480545044,
                1.2993472814559937
            ],
            "min" : [
                -1.673004388809204,
                -1.9462233781814575,
                -1.5196490287780762
            ],
            "type" : "VEC3"
        },
        {
            "bufferView" : 1,
            "componentType" : 5126,
            "count" : 391,
            "type" : "VEC3"
        },
        {
            "bufferView" : 2,
            "componentType" : 5126,
            "count" : 391,
            "type" : "VEC2"
        },
        {
            "bufferView" : 3,
            "componentType" : 5123,
            "count" : 1440,
            "type" : "SCALAR"
        }
    ],
    "bufferViews" : [
        {
            "buffer" : 0,
            "byteLength" : 4692,
            "byteOffset" : 0
        },
        {
            "buffer" : 0,
            "byteLength" : 4692,
            "byteOffset" : 4692
        },
        {
            "buffer" : 0,
            "byteLength" : 3128,
            "byteOffset" : 9384
        },
        {
            "buffer" : 0,
            "byteLength" : 2880,
            "byteOffset" : 12512
        }
    ],
    "buffers" : [
        {
            "byteLength" : 15392,
            "uri" : "data:application/octet-stream;base64,"
        }
    ]
}
