{
    "asset" : {
        "generator" : "Khronos glTF Blender I/O v1.7.33",
        "version" : "2.0"
    },
    "scene" : 0,
    "scenes" : [
        {
            "name" : "Scene",
            "nodes" : [
                0
            ]
        }
    ],
    "nodes" : [
        {
            "mesh" : 0,
            "name" : "Cube",
            "scale" : [
                1.1396929025650024,
                1.1396929025650024,
                1.1396929025650024
            ],
            "translation" : [
                0,
                1.6405426263809204,
                0
            ]
        }
    ],
    "meshes" : [
        {
            "name" : "Cube.001",
            "primitives" : [
                {
                    "attributes" : {
                        "POSITION" : 0,
                        "NORMAL" : 1,
                        "TEXCOORD_0" : 2
                    },
                    "indices" : 3
                }
            ]
        }
    ],
    "accessors" : [
        {
            "bufferView" : 0,
            "componentType" : 5126,
            "count" : 145,
            "max" : [
                1.5700241327285767,
                2.7087666988372803,
                1.5700241327285767
            ],
            "min" : [
                -1.5700241327285767,
                -1.9318124055862427,
                -1.5700241327285767
            ],
            "type" : "VEC3"
        },
        {
            "bufferView" : 1,
            "componentType" : 5126,
            "count" : 145,
            "type" : "VEC3"
        },
        {
            "bufferView" : 2,
            "componentType" : 5126,
            "count" : 145,
            "type" : "VEC2"
        },
        {
            "bufferView" : 3,
            "componentType" : 5123,
            "count" : 492,
            "type" : "SCALAR"
        }
    ],
    "bufferViews" : [
        {
            "buffer" : 0,
            "byteLength" : 1740,
            "byteOffset" : 0
        },
        {
            "buffer" : 0,
            "byteLength" : 1740,
            "byteOffset" : 1740
        },
        {
            "buffer" : 0,
            "byteLength" : 1160,
            "byteOffset" : 3480
        },
        {
            "buffer" : 0,
            "byteLength" : 984,
            "byteOffset" : 4640
        }
    ],
    "buffers" : [
        {
            "byteLength" : 5624,
            "uri" : "data:application/octet-stream;base64,"
        }
    ]
}
