{
    "asset" : {
        "generator" : "Khronos glTF Blender I/O v1.7.33",
        "version" : "2.0"
    },
    "scene" : 0,
    "scenes" : [
        {
            "name" : "Scene",
            "nodes" : [
                0,
                1
            ]
        }
    ],
    "nodes" : [
        {
            "mesh" : 0,
            "name" : "Torus",
            "rotation" : [
                0.00030431326013058424,
                -0.0010157013311982155,
                -0.7032988667488098,
                0.7108935117721558
            ],
            "translation" : [
                0,
                2.446352481842041,
                2.695004463195801
            ]
        },
        {
            "mesh" : 1,
            "name" : "Cylinder",
            "rotation" : [
                -0.7071801424026489,
                0,
                0,
                0.7070333957672119
            ],
            "scale" : [
                0.2173042744398117,
                0.2173042744398117,
                0.2173042744398117
            ],
            "translation" : [
                -0.03564605861902237,
                2.439621686935425,
                1.5859829187393188
            ]
        }
    ],
    "meshes" : [
        {
            "name" : "Torus",
            "primitives" : [
                {
                    "attributes" : {
                        "POSITION" : 0,
                        "NORMAL" : 1,
                        "TEXCOORD_0" : 2
                    },
                    "indices" : 3
                }
            ]
        },
        {
            "name" : "Cylinder",
            "primitives" : [
                {
                    "attributes" : {
                        "POSITION" : 4,
                        "NORMAL" : 5,
                        "TEXCOORD_0" : 6
                    },
                    "indices" : 7
                }
            ]
        }
    ],
    "accessors" : [
        {
            "bufferView" : 0,
            "componentType" : 5126,
            "count" : 81,
            "max" : [
                2.0475969314575195,
                0.06424253433942795,
                0.6513227224349976
            ],
            "min" : [
                -0.45240312814712524,
                -0.43575745820999146,
                -1.8486772775650024
            ],
            "type" : "VEC3"
        },
        {
            "bufferView" : 1,
            "componentType" : 5126,
            "count" : 81,
            "type" : "VEC3"
        },
        {
            "bufferView" : 2,
            "componentType" : 5126,
            "count" : 81,
            "type" : "VEC2"
        },
        {
            "bufferView" : 3,
            "componentType" : 5123,
            "count" : 384,
            "type" : "SCALAR"
        },
        {
            "bufferView" : 4,
            "componentType" : 5126,
            "count" : 129,
            "max" : [
                0.18979999423027039,
                20.167709350585938,
                -2.68155574798584
            ],
            "min" : [
                -1.8102003335952759,
                1.7536382675170898,
                -7.742152214050293
            ],
            "type" : "VEC3"
        },
        {
            "bufferView" : 5,
            "componentType" : 5126,
            "count" : 129,
            "type" : "VEC3"
        },
        {
            "bufferView" : 6,
            "componentType" : 5126,
            "count" : 129,
            "type" : "VEC2"
        },
        {
            "bufferView" : 7,
            "componentType" : 5123,
            "count" : 399,
            "type" : "SCALAR"
        }
    ],
    "bufferViews" : [
        {
            "buffer" : 0,
            "byteLength" : 972,
            "byteOffset" : 0
        },
        {
            "buffer" : 0,
            "byteLength" : 972,
            "byteOffset" : 972
        },
        {
            "buffer" : 0,
            "byteLength" : 648,
            "byteOffset" : 1944
        },
        {
            "buffer" : 0,
            "byteLength" : 768,
            "byteOffset" : 2592
        },
        {
            "buffer" : 0,
            "byteLength" : 1548,
            "byteOffset" : 3360
        },
        {
            "buffer" : 0,
            "byteLength" : 1548,
            "byteOffset" : 4908
        },
        {
            "buffer" : 0,
            "byteLength" : 1032,
            "byteOffset" : 6456
        },
        {
            "buffer" : 0,
            "byteLength" : 798,
            "byteOffset" : 7488
        }
    ],
    "buffers" : [
        {
            "byteLength" : 8288,
            "uri" : "data:application/octet-stream;base64,"
        }
    ]
}
