{
    "asset" : {
        "generator" : "Khronos glTF Blender I/O v1.7.33",
        "version" : "2.0"
    },
    "scene" : 0,
    "scenes" : [
        {
            "name" : "Scene",
            "nodes" : [
                0
            ]
        }
    ],
    "nodes" : [
        {
            "mesh" : 0,
            "name" : "Sphere",
            "rotation" : [
                -0.7220112085342407,
                0.02325761877000332,
                0.005721434950828552,
                -0.6914666891098022
            ],
            "scale" : [
                1,
                1.5975992679595947,
                1.0190496444702148
            ]
        }
    ],
    "meshes" : [
        {
            "name" : "Sphere.002",
            "primitives" : [
                {
                    "attributes" : {
                        "POSITION" : 0,
                        "NORMAL" : 1,
                        "TEXCOORD_0" : 2
                    },
                    "indices" : 3
                }
            ]
        }
    ],
    "accessors" : [
        {
            "bufferView" : 0,
            "componentType" : 5126,
            "count" : 34,
            "max" : [
                0.8659943342208862,
                1.8329132795333862,
                0.5015374422073364
            ],
            "min" : [
                -0.8668828010559082,
                -1.8329135179519653,
                -1.0015932321548462
            ],
            "type" : "VEC3"
        },
        {
            "bufferView" : 1,
            "componentType" : 5126,
            "count" : 34,
            "type" : "VEC3"
        },
        {
            "bufferView" : 2,
            "componentType" : 5126,
            "count" : 34,
            "type" : "VEC2"
        },
        {
            "bufferView" : 3,
            "componentType" : 5123,
            "count" : 126,
            "type" : "SCALAR"
        }
    ],
    "bufferViews" : [
        {
            "buffer" : 0,
            "byteLength" : 408,
            "byteOffset" : 0
        },
        {
            "buffer" : 0,
            "byteLength" : 408,
            "byteOffset" : 408
        },
        {
            "buffer" : 0,
            "byteLength" : 272,
            "byteOffset" : 816
        },
        {
            "buffer" : 0,
            "byteLength" : 252,
            "byteOffset" : 1088
        }
    ],
    "buffers" : [
        {
            "byteLength" : 1340,
            "uri" : "data:application/octet-stream;base64,"
        }
    ]
}
