{
    "asset" : {
        "generator" : "Khronos glTF Blender I/O v1.7.33",
        "version" : "2.0"
    },
    "scene" : 0,
    "scenes" : [
        {
            "name" : "Scene",
            "nodes" : [
                0
            ]
        }
    ],
    "nodes" : [
        {
            "mesh" : 0,
            "name" : "Cube",
            "scale" : [
                2.697599411010742,
                5.106969833374023,
                2.697599411010742
            ]
        }
    ],
    "meshes" : [
        {
            "name" : "Cube.001",
            "primitives" : [
                {
                    "attributes" : {
                        "POSITION" : 0,
                        "NORMAL" : 1,
                        "TEXCOORD_0" : 2
                    },
                    "indices" : 3
                }
            ]
        }
    ],
    "accessors" : [
        {
            "bufferView" : 0,
            "componentType" : 5126,
            "count" : 2664,
            "max" : [
                1.1120506525039673,
                1.6338492631912231,
                2.165071964263916
            ],
            "min" : [
                -1.8952046632766724,
                -1.0397547483444214,
                -1.265128493309021
            ],
            "type" : "VEC3"
        },
        {
            "bufferView" : 1,
            "componentType" : 5126,
            "count" : 2664,
            "type" : "VEC3"
        },
        {
            "bufferView" : 2,
            "componentType" : 5126,
            "count" : 2664,
            "type" : "VEC2"
        },
        {
            "bufferView" : 3,
            "componentType" : 5123,
            "count" : 4842,
            "type" : "SCALAR"
        }
    ],
    "bufferViews" : [
        {
            "buffer" : 0,
            "byteLength" : 31968,
            "byteOffset" : 0
        },
        {
            "buffer" : 0,
            "byteLength" : 31968,
            "byteOffset" : 31968
        },
        {
            "buffer" : 0,
            "byteLength" : 21312,
            "byteOffset" : 63936
        },
        {
            "buffer" : 0,
            "byteLength" : 9684,
            "byteOffset" : 85248
        }
    ],
    "buffers" : [
        {
            "byteLength" : 94932,
            "uri" : "data:application/octet-stream;base64,"
        }
    ]
}
