{
    "asset" : {
        "generator" : "Khronos glTF Blender I/O v1.8.19",
        "version" : "2.0"
    },
    "scene" : 0,
    "scenes" : [
        {
            "name" : "Scene",
            "nodes" : [
                0
            ]
        }
    ],
    "nodes" : [
        {
            "mesh" : 0,
            "name" : "Cube",
            "scale" : [
                0.8581530451774597,
                0.8581530451774597,
                0.8581530451774597
            ]
        }
    ],
    "meshes" : [
        {
            "name" : "Cube.001",
            "primitives" : [
                {
                    "attributes" : {
                        "POSITION" : 0,
                        "NORMAL" : 1,
                        "TEXCOORD_0" : 2
                    },
                    "indices" : 3
                }
            ]
        }
    ],
    "accessors" : [
        {
            "bufferView" : 0,
            "componentType" : 5126,
            "count" : 154,
            "max" : [
                1.9396774768829346,
                3.0588364601135254,
                1.3051233291625977
            ],
            "min" : [
                -2.4410908222198486,
                -4.890206813812256,
                -3.075645685195923
            ],
            "type" : "VEC3"
        },
        {
            "bufferView" : 1,
            "componentType" : 5126,
            "count" : 154,
            "type" : "VEC3"
        },
        {
            "bufferView" : 2,
            "componentType" : 5126,
            "count" : 154,
            "type" : "VEC2"
        },
        {
            "bufferView" : 3,
            "componentType" : 5123,
            "count" : 588,
            "type" : "SCALAR"
        }
    ],
    "bufferViews" : [
        {
            "buffer" : 0,
            "byteLength" : 1848,
            "byteOffset" : 0
        },
        {
            "buffer" : 0,
            "byteLength" : 1848,
            "byteOffset" : 1848
        },
        {
            "buffer" : 0,
            "byteLength" : 1232,
            "byteOffset" : 3696
        },
        {
            "buffer" : 0,
            "byteLength" : 1176,
            "byteOffset" : 4928
        }
    ],
    "buffers" : [
        {
            "byteLength" : 6104,
            "uri" : "data:application/octet-stream;base64,"
        }
    ]
}
