{
    "asset" : {
        "generator" : "Khronos glTF Blender I/O v1.7.33",
        "version" : "2.0"
    },
    "scene" : 0,
    "scenes" : [
        {
            "name" : "Scene",
            "nodes" : [
                0
            ]
        }
    ],
    "nodes" : [
        {
            "mesh" : 0,
            "name" : "Sphere"
        }
    ],
    "meshes" : [
        {
            "name" : "Sphere.001",
            "primitives" : [
                {
                    "attributes" : {
                        "POSITION" : 0,
                        "NORMAL" : 1,
                        "TEXCOORD_0" : 2
                    },
                    "indices" : 3
                }
            ]
        }
    ],
    "accessors" : [
        {
            "bufferView" : 0,
            "componentType" : 5126,
            "count" : 343,
            "max" : [
                0.8219645023345947,
                0.5665383338928223,
                1.5374258756637573
            ],
            "min" : [
                -0.8219645023345947,
                -1.0671398639678955,
                -1.5223504304885864
            ],
            "type" : "VEC3"
        },
        {
            "bufferView" : 1,
            "componentType" : 5126,
            "count" : 343,
            "type" : "VEC3"
        },
        {
            "bufferView" : 2,
            "componentType" : 5126,
            "count" : 343,
            "type" : "VEC2"
        },
        {
            "bufferView" : 3,
            "componentType" : 5123,
            "count" : 1416,
            "type" : "SCALAR"
        }
    ],
    "bufferViews" : [
        {
            "buffer" : 0,
            "byteLength" : 4116,
            "byteOffset" : 0
        },
        {
            "buffer" : 0,
            "byteLength" : 4116,
            "byteOffset" : 4116
        },
        {
            "buffer" : 0,
            "byteLength" : 2744,
            "byteOffset" : 8232
        },
        {
            "buffer" : 0,
            "byteLength" : 2832,
            "byteOffset" : 10976
        }
    ],
    "buffers" : [
        {
            "byteLength" : 13808,
            "uri" : "data:application/octet-stream;base64,"
        }
    ]
}
