{
    "asset" : {
        "generator" : "Khronos glTF Blender I/O v1.8.19",
        "version" : "2.0"
    },
    "scene" : 0,
    "scenes" : [
        {
            "name" : "Scene",
            "nodes" : [
                0,
                1
            ]
        }
    ],
    "nodes" : [
        {
            "mesh" : 0,
            "name" : "Sphere",
            "scale" : [
                1,
                1.3719505071640015,
                1
            ]
        },
        {
            "mesh" : 1,
            "name" : "Cylinder",
            "scale" : [
                1,
                0.04685484990477562,
                1
            ],
            "translation" : [
                1.5217591524124146,
                0.3088797628879547,
                -2.6625092029571533
            ]
        }
    ],
    "meshes" : [
        {
            "name" : "Sphere",
            "primitives" : [
                {
                    "attributes" : {
                        "POSITION" : 0,
                        "NORMAL" : 1,
                        "TEXCOORD_0" : 2
                    },
                    "indices" : 3
                }
            ]
        },
        {
            "name" : "Cylinder",
            "primitives" : [
                {
                    "attributes" : {
                        "POSITION" : 4,
                        "NORMAL" : 5,
                        "TEXCOORD_0" : 6
                    },
                    "indices" : 7
                }
            ]
        }
    ],
    "accessors" : [
        {
            "bufferView" : 0,
            "componentType" : 5126,
            "count" : 47,
            "max" : [
                0.8660255074501038,
                1,
                1.0000001192092896
            ],
            "min" : [
                -0.8660255670547485,
                -1,
                -1
            ],
            "type" : "VEC3"
        },
        {
            "bufferView" : 1,
            "componentType" : 5126,
            "count" : 47,
            "type" : "VEC3"
        },
        {
            "bufferView" : 2,
            "componentType" : 5126,
            "count" : 47,
            "type" : "VEC2"
        },
        {
            "bufferView" : 3,
            "componentType" : 5123,
            "count" : 180,
            "type" : "SCALAR"
        },
        {
            "bufferView" : 4,
            "componentType" : 5126,
            "count" : 84,
            "max" : [
                -0.3909359574317932,
                30.96122932434082,
                3.657177686691284
            ],
            "min" : [
                -2.8407063484191895,
                9.582016944885254,
                1.2371768951416016
            ],
            "type" : "VEC3"
        },
        {
            "bufferView" : 5,
            "componentType" : 5126,
            "count" : 84,
            "type" : "VEC3"
        },
        {
            "bufferView" : 6,
            "componentType" : 5126,
            "count" : 84,
            "type" : "VEC2"
        },
        {
            "bufferView" : 7,
            "componentType" : 5123,
            "count" : 270,
            "type" : "SCALAR"
        }
    ],
    "bufferViews" : [
        {
            "buffer" : 0,
            "byteLength" : 564,
            "byteOffset" : 0
        },
        {
            "buffer" : 0,
            "byteLength" : 564,
            "byteOffset" : 564
        },
        {
            "buffer" : 0,
            "byteLength" : 376,
            "byteOffset" : 1128
        },
        {
            "buffer" : 0,
            "byteLength" : 360,
            "byteOffset" : 1504
        },
        {
            "buffer" : 0,
            "byteLength" : 1008,
            "byteOffset" : 1864
        },
        {
            "buffer" : 0,
            "byteLength" : 1008,
            "byteOffset" : 2872
        },
        {
            "buffer" : 0,
            "byteLength" : 672,
            "byteOffset" : 3880
        },
        {
            "buffer" : 0,
            "byteLength" : 540,
            "byteOffset" : 4552
        }
    ],
    "buffers" : [
        {
            "byteLength" : 5092,
            "uri" : "data:application/octet-stream;base64,"
        }
    ]
}
